# xmcd
#
# Track frame offsets:
#	150
#	24013
#	38649
#	51640
#	70987
#	91077
#	105108
#	122694
#	141646
#	159489
#	175522
#
# Disc length: 2606 seconds
#
# Revision: 0
# Processed by: cddbd v1.5.1PL0 Copyright (c) Steve Scherf et al.
# Submitted via: dBpowerAMP V4.0
#
DISCID=850a2c0b
DTITLE=John Berry - I Give My Heart
DYEAR=1900
DGENRE=
TTITLE0=If
TTITLE1=Time In A Bottle
TTITLE2=Will You Marry Me
TTITLE3=Your Love Amazes Me
TTITLE4=Faithfully
TTITLE5=I Just Wanna Stop
TTITLE6=I Give My Heart
TTITLE7=Since The Day That I Met You
TTITLE8=Love Look What You've Done To Me
TTITLE9=Let's Stay Together
TTITLE10=Lady
EXTD=
EXTT0=
EXTT1=
EXTT2=
EXTT3=
EXTT4=
EXTT5=
EXTT6=
EXTT7=
EXTT8=
EXTT9=
EXTT10=
PLAYORDER=
